<svg width="130" height="88" viewBox="0 0 130 88" fill="none" xmlns="http://www.w3.org/2000/svg">
<path d="M16.717 15.834C17.4957 15.834 17.885 16.272 17.885 17.148V68.248C17.885 68.8807 17.7147 69.343 17.374 69.635C17.082 69.8783 16.5953 70 15.914 70H6.716C6.08333 70 5.64533 69.8783 5.402 69.635C5.20733 69.3917 5.11 69.0023 5.11 68.467V17.221C5.11 16.2963 5.49933 15.834 6.278 15.834H16.717ZM70.4164 34.23C70.4164 37.6833 69.5997 40.6 67.9664 42.98C66.333 45.3133 64.093 47.0867 61.2464 48.3C58.4464 49.5133 55.1797 50.12 51.4464 50.12H40.9464C40.433 50.12 40.1764 50.3767 40.1764 50.89V68.39C40.1764 69.4633 39.5697 70 38.3564 70H29.3964C28.8364 70 28.4397 69.8833 28.2064 69.65C28.0197 69.4167 27.9264 69.0667 27.9264 68.6V19.39C27.9264 18.5033 28.2997 18.06 29.0464 18.06H50.0464C53.7797 18.06 57.1864 18.6433 60.2664 19.81C63.393 20.9767 65.8664 22.75 67.6864 25.13C69.5064 27.51 70.4164 30.5433 70.4164 34.23ZM57.8164 34.02C57.8164 32.3867 57.4664 31.0567 56.7664 30.03C56.0664 28.9567 55.063 28.1633 53.7564 27.65C52.4497 27.1367 50.9564 26.88 49.2764 26.88H41.5064C40.6197 26.88 40.1764 27.2767 40.1764 28.07V40.04C40.1764 40.9267 40.503 41.37 41.1564 41.37H49.7664C52.2397 41.37 54.1997 40.7167 55.6464 39.41C57.093 38.1033 57.8164 36.3067 57.8164 34.02Z" fill="url(#paint0_linear_53_2)"/>
<path d="M100 69.75C115.326 69.75 127.75 57.3259 127.75 42C127.75 26.6741 115.326 14.25 100 14.25C84.6741 14.25 72.25 26.6741 72.25 42C72.25 57.3259 84.6741 69.75 100 69.75Z" fill="url(#paint1_linear_53_2)"/>
<path fill-rule="evenodd" clip-rule="evenodd" d="M76.0285 40.8158C77.9732 45.6053 81 51 86.5 52.5C98 54 94.25 32.5 105.5 32.5C109.228 32.5 114.5 47.5 123.025 35.2057C123.674 37.4121 124.002 39.7002 124 42C124 55.2547 113.255 66 100 66C86.7452 66 76 55.2547 76 42C76 41.6025 76.0097 41.208 76.0285 40.8158Z" fill="url(#paint2_linear_53_2)"/>
<defs>
<linearGradient id="paint0_linear_53_2" x1="37" y1="0" x2="37" y2="88" gradientUnits="userSpaceOnUse">
<stop stop-color="#5A7CF1"/>
<stop offset="1" stop-color="#AE92FD"/>
</linearGradient>
<linearGradient id="paint1_linear_53_2" x1="100" y1="14.25" x2="100" y2="69.75" gradientUnits="userSpaceOnUse">
<stop stop-color="#5A7CF1"/>
<stop offset="1" stop-color="#AE92FD"/>
</linearGradient>
<linearGradient id="paint2_linear_53_2" x1="2476" y1="31.5" x2="2476" y2="5731.49" gradientUnits="userSpaceOnUse">
<stop stop-color="white"/>
<stop offset="1" stop-color="#0019FF"/>
</linearGradient>
</defs>
</svg>
