<svg width="176" height="65" viewBox="0 0 176 65" fill="none" xmlns="http://www.w3.org/2000/svg">
<path d="M113.754 22.8562L113.754 17.3772L120.939 17.3753L98.7019 0L87.6359 8.65532L76.5654 0.00487917L54.3364 17.3902L61.5212 17.3883L61.5213 22.8236C57.4194 24.2503 53.8487 25.9994 51 28C59.8754 23.5811 72.9717 20.7817 87.5925 20.7817C102.213 20.7817 115.309 23.5811 124.185 28C121.357 26.0143 117.817 24.277 113.754 22.8562ZM93.2931 15.4844L81.9807 15.4864L87.6359 11.0643L93.2931 15.4844ZM63.4193 22.2016L63.4186 15.4909H59.8434L76.5654 2.4136L86.0952 9.85981L76.4718 17.3856H76.4727L87.6369 17.3828L98.8019 17.3801L92.9827 12.8335L89.1768 9.85968L98.7017 2.40909L115.43 15.4799H111.856L111.857 22.2304C104.895 20.0529 96.562 18.7776 87.5927 18.7776C78.6622 18.7776 70.3632 20.0416 63.4193 22.2016Z" fill="white"/>
<path d="M60.6062 26.9982C66.3025 24.7485 75.9176 23.2703 86.8211 23.2703C97.7248 23.2703 107.34 24.7483 113.036 26.9982C105.946 25.7584 96.8047 25.0106 86.8211 25.0106C76.8377 25.0106 67.6964 25.7584 60.6062 26.9982Z" fill="#B1C9EA"/>
<path d="M18.9844 50.1098C18.9844 50.9744 18.8229 51.7192 18.5 52.3442C18.1875 52.9692 17.7656 53.5004 17.2344 53.9379C16.7031 54.3754 16.0885 54.7348 15.3906 55.0161C14.7031 55.2869 13.9844 55.5004 13.2344 55.6567C12.4844 55.8129 11.7292 55.9171 10.9688 55.9692C10.2188 56.0213 9.51562 56.0473 8.85938 56.0473C8.21354 56.0473 7.54167 56.0213 6.84375 55.9692C6.15625 55.9275 5.46875 55.8494 4.78125 55.7348C4.09375 55.6202 3.41667 55.4692 2.75 55.2817C2.08333 55.0838 1.45312 54.839 0.859375 54.5473L0.828125 34.4223C1.41146 34.1827 2.03125 33.9692 2.6875 33.7817C3.34375 33.5838 4.01042 33.4223 4.6875 33.2973C5.375 33.1619 6.05729 33.0629 6.73438 33.0004C7.41146 32.9275 8.06771 32.8911 8.70312 32.8911C9.44271 32.8911 10.1875 32.9379 10.9375 33.0317C11.6979 33.1254 12.4271 33.2817 13.125 33.5004C13.8229 33.7192 14.474 34.0056 15.0781 34.3598C15.6823 34.7036 16.2083 35.1306 16.6562 35.6411C17.1146 36.1515 17.4688 36.7452 17.7188 37.4223C17.9792 38.0994 18.1094 38.8806 18.1094 39.7661C18.1094 40.3494 18.026 40.8963 17.8594 41.4067C17.6927 41.9171 17.4531 42.3754 17.1406 42.7817C16.8281 43.1879 16.4479 43.5369 16 43.8286C15.5521 44.1098 15.0469 44.3181 14.4844 44.4536C15.1615 44.6306 15.776 44.8911 16.3281 45.2348C16.8906 45.5786 17.3646 45.9952 17.75 46.4848C18.1458 46.9744 18.4479 47.5265 18.6562 48.1411C18.875 48.7556 18.9844 49.4119 18.9844 50.1098ZM11.0469 41.2036C11.0469 40.9015 10.9844 40.6463 10.8594 40.4379C10.7344 40.2192 10.5781 40.0421 10.3906 39.9067C10.2135 39.7713 10.0156 39.6723 9.79688 39.6098C9.58854 39.5473 9.40104 39.5161 9.23438 39.5161C9.02604 39.5161 8.82292 39.5473 8.625 39.6098C8.42708 39.6723 8.23438 39.7452 8.04688 39.8286L7.95312 43.2973C8.19271 43.2973 8.48958 43.2765 8.84375 43.2348C9.19792 43.1931 9.53646 43.1046 9.85938 42.9692C10.1927 42.8233 10.474 42.615 10.7031 42.3442C10.9323 42.0629 11.0469 41.6827 11.0469 41.2036ZM8.82812 46.2973C8.52604 46.2973 8.23438 46.3286 7.95312 46.3911L7.89062 49.9536C8.04688 49.9848 8.19792 50.0161 8.34375 50.0473C8.5 50.0681 8.65104 50.0786 8.79688 50.0786C9.01562 50.0786 9.25521 50.0577 9.51562 50.0161C9.77604 49.964 10.0208 49.8702 10.25 49.7348C10.4792 49.589 10.6667 49.3963 10.8125 49.1567C10.9688 48.9171 11.0469 48.5994 11.0469 48.2036C11.0469 47.8077 10.9688 47.4848 10.8125 47.2348C10.6667 46.9848 10.4844 46.7921 10.2656 46.6567C10.0469 46.5108 9.80729 46.4171 9.54688 46.3754C9.28646 46.3233 9.04688 46.2973 8.82812 46.2973ZM33.5312 47.3911L32.875 54.3286L19.7188 55.3598L20.2188 33.0473H28.3438L27.1875 47.3911H33.5312ZM53.5781 43.7036C53.5781 44.6515 53.4688 45.5681 53.25 46.4536C53.0312 47.3286 52.7135 48.1515 52.2969 48.9223C51.8906 49.6931 51.3906 50.4015 50.7969 51.0473C50.2135 51.6827 49.5521 52.2296 48.8125 52.6879C48.0833 53.1463 47.2865 53.5056 46.4219 53.7661C45.5573 54.0161 44.6406 54.1411 43.6719 54.1411C42.7344 54.1411 41.8385 54.0213 40.9844 53.7817C40.1406 53.5421 39.349 53.2088 38.6094 52.7817C37.8698 52.3442 37.1979 51.8233 36.5938 51.2192C36 50.6046 35.4896 49.9275 35.0625 49.1879C34.6458 48.4379 34.3177 47.6358 34.0781 46.7817C33.849 45.9275 33.7344 45.0369 33.7344 44.1098C33.7344 43.2036 33.8438 42.3181 34.0625 41.4536C34.2812 40.5786 34.5938 39.7556 35 38.9848C35.4167 38.214 35.9167 37.5056 36.5 36.8598C37.0833 36.214 37.7344 35.6567 38.4531 35.1879C39.1823 34.7192 39.9688 34.3546 40.8125 34.0942C41.6562 33.8338 42.5469 33.7036 43.4844 33.7036C44.9948 33.7036 46.3698 33.9379 47.6094 34.4067C48.8594 34.8754 49.9219 35.5473 50.7969 36.4223C51.6823 37.2869 52.3646 38.339 52.8438 39.5786C53.3333 40.8077 53.5781 42.1827 53.5781 43.7036ZM46.6406 44.1098C46.6406 43.6619 46.5729 43.2296 46.4375 42.8129C46.3125 42.3858 46.125 42.0108 45.875 41.6879C45.625 41.3546 45.3125 41.089 44.9375 40.8911C44.5729 40.6827 44.151 40.5786 43.6719 40.5786C43.1823 40.5786 42.7448 40.6671 42.3594 40.8442C41.974 41.0213 41.6406 41.2661 41.3594 41.5786C41.0885 41.8806 40.8802 42.24 40.7344 42.6567C40.5885 43.0629 40.5156 43.4952 40.5156 43.9536C40.5156 44.3911 40.5781 44.8286 40.7031 45.2661C40.8281 45.7036 41.0156 46.0994 41.2656 46.4536C41.5156 46.8077 41.8229 47.0942 42.1875 47.3129C42.5625 47.5317 42.9948 47.6411 43.4844 47.6411C43.974 47.6411 44.4115 47.5473 44.7969 47.3598C45.1927 47.1619 45.526 46.9015 45.7969 46.5786C46.0677 46.2452 46.276 45.865 46.4219 45.4379C46.5677 45.0108 46.6406 44.5681 46.6406 44.1098ZM73.5625 52.1723C73.0729 52.7869 72.4688 53.3233 71.75 53.7817C71.0312 54.24 70.2604 54.6202 69.4375 54.9223C68.6146 55.2244 67.7708 55.4536 66.9062 55.6098C66.0417 55.7556 65.2188 55.8286 64.4375 55.8286C62.9271 55.8286 61.5365 55.5733 60.2656 55.0629C58.9948 54.5525 57.8958 53.8442 56.9688 52.9379C56.0521 52.0213 55.3333 50.9327 54.8125 49.6723C54.2917 48.4119 54.0312 47.0369 54.0312 45.5473C54.0312 44.4119 54.1615 43.3077 54.4219 42.2348C54.6823 41.1619 55.0521 40.1567 55.5312 39.2192C56.0208 38.2817 56.6146 37.4223 57.3125 36.6411C58.0104 35.8598 58.8021 35.1879 59.6875 34.6254C60.5729 34.0629 61.5417 33.6306 62.5938 33.3286C63.6562 33.0161 64.7812 32.8598 65.9688 32.8598C66.4167 32.8598 66.8958 32.8806 67.4062 32.9223C67.9167 32.9536 68.4219 33.0161 68.9219 33.1098C69.4323 33.1931 69.9271 33.3129 70.4062 33.4692C70.8854 33.6254 71.3229 33.8181 71.7188 34.0473L71.2812 40.0161C70.6979 39.7973 70.0938 39.6515 69.4688 39.5786C68.8542 39.4952 68.25 39.4536 67.6562 39.4536C66.8229 39.4536 66.0417 39.5681 65.3125 39.7973C64.5938 40.0161 63.9635 40.3442 63.4219 40.7817C62.8906 41.2192 62.4688 41.7661 62.1562 42.4223C61.8438 43.0786 61.6875 43.839 61.6875 44.7036C61.6875 45.2452 61.7604 45.7713 61.9062 46.2817C62.0521 46.7817 62.2708 47.2296 62.5625 47.6254C62.8646 48.0108 63.2344 48.3233 63.6719 48.5629C64.1198 48.8025 64.6354 48.9223 65.2188 48.9223C65.6146 48.9223 66.0208 48.8702 66.4375 48.7661C66.8646 48.6619 67.2292 48.4848 67.5312 48.2348L67.5938 47.0161L63.8438 46.9536L64.0312 42.2661C65.5833 42.214 67.1354 42.1723 68.6875 42.1411C70.2396 42.0994 71.8021 42.0473 73.375 41.9848L73.5625 52.1723ZM99.5625 55.0473L91.75 55.4223L91.6875 48.8286H88.0938L87.875 55.6723H80.875L81.4688 33.7036L88.9062 34.0473L88.4375 45.2661H91.9062L91.9375 33.5161L99.0625 33.7036L99.5625 55.0473ZM120.359 43.7036C120.359 44.6515 120.25 45.5681 120.031 46.4536C119.812 47.3286 119.495 48.1515 119.078 48.9223C118.672 49.6931 118.172 50.4015 117.578 51.0473C116.995 51.6827 116.333 52.2296 115.594 52.6879C114.865 53.1463 114.068 53.5056 113.203 53.7661C112.339 54.0161 111.422 54.1411 110.453 54.1411C109.516 54.1411 108.62 54.0213 107.766 53.7817C106.922 53.5421 106.13 53.2088 105.391 52.7817C104.651 52.3442 103.979 51.8233 103.375 51.2192C102.781 50.6046 102.271 49.9275 101.844 49.1879C101.427 48.4379 101.099 47.6358 100.859 46.7817C100.63 45.9275 100.516 45.0369 100.516 44.1098C100.516 43.2036 100.625 42.3181 100.844 41.4536C101.062 40.5786 101.375 39.7556 101.781 38.9848C102.198 38.214 102.698 37.5056 103.281 36.8598C103.865 36.214 104.516 35.6567 105.234 35.1879C105.964 34.7192 106.75 34.3546 107.594 34.0942C108.438 33.8338 109.328 33.7036 110.266 33.7036C111.776 33.7036 113.151 33.9379 114.391 34.4067C115.641 34.8754 116.703 35.5473 117.578 36.4223C118.464 37.2869 119.146 38.339 119.625 39.5786C120.115 40.8077 120.359 42.1827 120.359 43.7036ZM113.422 44.1098C113.422 43.6619 113.354 43.2296 113.219 42.8129C113.094 42.3858 112.906 42.0108 112.656 41.6879C112.406 41.3546 112.094 41.089 111.719 40.8911C111.354 40.6827 110.932 40.5786 110.453 40.5786C109.964 40.5786 109.526 40.6671 109.141 40.8442C108.755 41.0213 108.422 41.2661 108.141 41.5786C107.87 41.8806 107.661 42.24 107.516 42.6567C107.37 43.0629 107.297 43.4952 107.297 43.9536C107.297 44.3911 107.359 44.8286 107.484 45.2661C107.609 45.7036 107.797 46.0994 108.047 46.4536C108.297 46.8077 108.604 47.0942 108.969 47.3129C109.344 47.5317 109.776 47.6411 110.266 47.6411C110.755 47.6411 111.193 47.5473 111.578 47.3598C111.974 47.1619 112.307 46.9015 112.578 46.5786C112.849 46.2452 113.057 45.865 113.203 45.4379C113.349 45.0108 113.422 44.5681 113.422 44.1098ZM140.078 33.6723C139.609 37.339 139.208 40.99 138.875 44.6254C138.542 48.2504 138.224 51.9015 137.922 55.5786L131.516 56.0473L131.797 53.6411C131.589 53.8806 131.344 54.089 131.062 54.2661C130.792 54.4431 130.5 54.589 130.188 54.7036C129.875 54.8077 129.552 54.8858 129.219 54.9379C128.885 54.9796 128.568 54.9952 128.266 54.9848C127.557 54.9744 126.891 54.839 126.266 54.5786C125.641 54.3077 125.068 53.9536 124.547 53.5161C124.026 53.0681 123.557 52.5525 123.141 51.9692C122.724 51.3754 122.37 50.7556 122.078 50.1098C121.797 49.4536 121.578 48.7869 121.422 48.1098C121.276 47.4327 121.203 46.7765 121.203 46.1411C121.203 45.2036 121.219 44.2348 121.25 43.2348C121.292 42.2244 121.359 41.214 121.453 40.2036C121.547 39.1931 121.667 38.1931 121.812 37.2036C121.969 36.214 122.161 35.2661 122.391 34.3598C123.661 34.4223 124.938 34.4796 126.219 34.5317C127.5 34.5838 128.776 34.5994 130.047 34.5786C129.807 35.4848 129.568 36.3963 129.328 37.3129C129.099 38.2192 128.891 39.1358 128.703 40.0629C128.516 40.9796 128.365 41.9015 128.25 42.8286C128.135 43.7556 128.078 44.6931 128.078 45.6411C128.078 45.8598 128.089 46.1723 128.109 46.5786C128.13 46.9848 128.182 47.3858 128.266 47.7817C128.359 48.1775 128.495 48.5265 128.672 48.8286C128.859 49.1202 129.12 49.2661 129.453 49.2661C129.849 49.2661 130.203 49.0994 130.516 48.7661C130.828 48.4223 131.104 47.964 131.344 47.3911C131.583 46.8181 131.786 46.1567 131.953 45.4067C132.13 44.6567 132.276 43.8754 132.391 43.0629C132.516 42.24 132.615 41.4119 132.688 40.5786C132.76 39.7452 132.812 38.964 132.844 38.2348C132.885 37.4952 132.911 36.8338 132.922 36.2504C132.943 35.6671 132.953 35.214 132.953 34.8911C132.953 34.6827 132.948 34.4796 132.938 34.2817C132.927 34.0838 132.911 33.8806 132.891 33.6723C133.568 33.6931 134.24 33.7088 134.906 33.7192C135.573 33.7296 136.245 33.7348 136.922 33.7348C137.443 33.7348 137.964 33.7348 138.484 33.7348C139.016 33.7244 139.547 33.7036 140.078 33.6723ZM156.875 47.6723C156.875 49.0994 156.625 50.3338 156.125 51.3754C155.635 52.4067 154.958 53.2608 154.094 53.9379C153.24 54.6046 152.234 55.0994 151.078 55.4223C149.932 55.7348 148.698 55.8911 147.375 55.8911C146.865 55.8911 146.302 55.8233 145.688 55.6879C145.083 55.5525 144.469 55.3858 143.844 55.1879C143.219 54.9796 142.615 54.7608 142.031 54.5317C141.458 54.2921 140.948 54.0681 140.5 53.8598L141.188 47.7348C142.073 48.2661 143.052 48.6723 144.125 48.9536C145.208 49.2244 146.271 49.3598 147.312 49.3598C147.51 49.3598 147.75 49.3546 148.031 49.3442C148.312 49.3233 148.578 49.2765 148.828 49.2036C149.089 49.1202 149.307 49.0004 149.484 48.8442C149.661 48.6879 149.75 48.464 149.75 48.1723C149.75 47.9744 149.688 47.8077 149.562 47.6723C149.438 47.5265 149.276 47.4119 149.078 47.3286C148.88 47.2348 148.656 47.1671 148.406 47.1254C148.156 47.0733 147.911 47.0369 147.672 47.0161C147.432 46.9952 147.208 46.9848 147 46.9848C146.792 46.9848 146.625 46.9848 146.5 46.9848C145.604 46.9848 144.786 46.8442 144.047 46.5629C143.318 46.2817 142.688 45.8858 142.156 45.3754C141.635 44.8546 141.229 44.2296 140.938 43.5004C140.646 42.7608 140.5 41.9431 140.5 41.0473C140.5 39.8181 140.745 38.7192 141.234 37.7504C141.734 36.7713 142.396 35.9431 143.219 35.2661C144.052 34.5786 145.005 34.0525 146.078 33.6879C147.151 33.3233 148.26 33.1411 149.406 33.1411C149.917 33.1411 150.443 33.1619 150.984 33.2036C151.526 33.2348 152.062 33.2973 152.594 33.3911C153.135 33.4848 153.661 33.6046 154.172 33.7504C154.682 33.8963 155.167 34.0786 155.625 34.2973L155.031 40.6411C154.323 40.4015 153.578 40.2036 152.797 40.0473C152.026 39.8806 151.271 39.7973 150.531 39.7973C150.396 39.7973 150.219 39.8025 150 39.8129C149.792 39.8129 149.568 39.8286 149.328 39.8598C149.099 39.8806 148.865 39.9171 148.625 39.9692C148.385 40.0213 148.172 40.0942 147.984 40.1879C147.797 40.2713 147.646 40.3858 147.531 40.5317C147.417 40.6775 147.365 40.8494 147.375 41.0473C147.385 41.2765 147.469 41.4536 147.625 41.5786C147.792 41.7036 148 41.7973 148.25 41.8598C148.51 41.9119 148.792 41.9379 149.094 41.9379C149.406 41.9379 149.714 41.9327 150.016 41.9223C150.318 41.9015 150.599 41.8858 150.859 41.8754C151.12 41.8546 151.333 41.8494 151.5 41.8598C152.333 41.9119 153.083 42.089 153.75 42.3911C154.417 42.6931 154.979 43.0942 155.438 43.5942C155.906 44.0942 156.26 44.6931 156.5 45.3911C156.75 46.0786 156.875 46.839 156.875 47.6723ZM175.328 43.0473C175.328 43.9536 175.266 44.8598 175.141 45.7661C173.359 45.8806 171.589 46.0681 169.828 46.3286C168.068 46.5786 166.307 46.8286 164.547 47.0786C164.818 47.8286 165.24 48.4275 165.812 48.8754C166.396 49.3233 167.089 49.5473 167.891 49.5473C168.307 49.5473 168.76 49.4692 169.25 49.3129C169.75 49.1567 170.245 48.964 170.734 48.7348C171.224 48.4952 171.693 48.24 172.141 47.9692C172.589 47.6983 172.974 47.4536 173.297 47.2348L172.547 54.3286C172.141 54.6411 171.698 54.9067 171.219 55.1254C170.75 55.3442 170.26 55.5213 169.75 55.6567C169.24 55.7921 168.724 55.8911 168.203 55.9536C167.682 56.0161 167.172 56.0473 166.672 56.0473C165.641 56.0473 164.698 55.9067 163.844 55.6254C162.99 55.3442 162.214 54.9536 161.516 54.4536C160.828 53.9431 160.224 53.3442 159.703 52.6567C159.182 51.9692 158.75 51.2192 158.406 50.4067C158.062 49.5942 157.802 48.7348 157.625 47.8286C157.448 46.9223 157.359 46.0056 157.359 45.0786C157.359 44.1098 157.448 43.1411 157.625 42.1723C157.802 41.2036 158.068 40.2713 158.422 39.3754C158.786 38.4796 159.24 37.6515 159.781 36.8911C160.333 36.1202 160.974 35.4483 161.703 34.8754C162.432 34.3025 163.255 33.8546 164.172 33.5317C165.099 33.2088 166.12 33.0473 167.234 33.0473C168.161 33.0473 169.005 33.1775 169.766 33.4379C170.536 33.6879 171.219 34.0421 171.812 34.5004C172.417 34.9483 172.938 35.4848 173.375 36.1098C173.823 36.7348 174.188 37.4223 174.469 38.1723C174.76 38.9119 174.974 39.6983 175.109 40.5317C175.255 41.3546 175.328 42.1931 175.328 43.0473ZM169.078 42.2348C169.078 41.9431 169.047 41.6463 168.984 41.3442C168.922 41.0317 168.818 40.7504 168.672 40.5004C168.536 40.2504 168.354 40.0473 168.125 39.8911C167.896 39.7244 167.609 39.6411 167.266 39.6411C166.849 39.6411 166.479 39.7556 166.156 39.9848C165.844 40.2036 165.573 40.4848 165.344 40.8286C165.115 41.1619 164.927 41.5265 164.781 41.9223C164.635 42.3181 164.526 42.6827 164.453 43.0161L169.078 42.5786V42.2348Z" fill="white"/>
</svg>
