<svg width="169" height="42" viewBox="0 0 169 42" fill="none" xmlns="http://www.w3.org/2000/svg">
<path fill-rule="evenodd" clip-rule="evenodd" d="M35.9352 0.0739445C36.0834 0.0612261 36.2074 0.110621 36.3072 0.221832C36.4618 0.553987 36.6354 0.874459 36.828 1.1831C38.1441 1.11877 38.3178 1.48849 37.3488 2.29225C37.2626 2.83988 37.2875 3.38204 37.4232 3.91901C36.9497 3.74584 36.4786 3.54871 36.0096 3.32747C35.6221 3.50242 35.2501 3.69955 34.8936 3.91901C34.844 3.86977 34.7943 3.82037 34.7448 3.77113C35.0817 2.87937 34.8833 2.13993 34.1496 1.55282C34.1807 1.46616 34.2304 1.39221 34.2984 1.33099C35.1894 1.36145 35.7351 0.942487 35.9352 0.0739445Z" fill="#F8C017"/>
<path fill-rule="evenodd" clip-rule="evenodd" d="M30.876 3.62325C30.6918 4.03157 30.4933 4.42598 30.2808 4.80635C30.0511 4.77633 29.8526 4.67769 29.6856 4.51057C29.3639 4.73536 29.0167 4.88325 28.644 4.95424C28.7575 4.56367 28.7824 4.16925 28.7184 3.77114C28.4751 3.58983 28.2519 3.39269 28.0488 3.17959C28.3698 2.98881 28.7169 2.86548 29.0904 2.80987C29.3071 2.55181 29.5054 2.28073 29.6856 1.99649C29.9563 2.23725 30.1548 2.53303 30.2808 2.88381C30.6311 2.96663 30.9782 3.06527 31.3224 3.17959C31.1974 3.36223 31.0486 3.51012 30.876 3.62325Z" fill="#F6C021"/>
<path fill-rule="evenodd" clip-rule="evenodd" d="M41.8872 4.95423C41.6476 4.55449 41.4988 4.11083 41.4408 3.62324C41.3415 3.574 41.2424 3.5246 41.1432 3.47536C41.0979 3.37923 41.0484 3.28059 40.9944 3.17958C41.2868 3.06245 41.5844 2.96381 41.8872 2.88381C42.0059 2.81622 42.0555 2.71758 42.036 2.58803C42.1686 2.47549 42.2678 2.3276 42.3336 2.14437C42.4563 2.01334 42.6051 1.9641 42.78 1.99648C42.8404 2.79507 43.2868 3.18949 44.1192 3.17958C43.9662 3.4548 43.743 3.65208 43.4496 3.77113C43.4235 4.16407 43.4484 4.55848 43.524 4.95423C43.1383 4.94743 42.8158 4.79954 42.5568 4.51057C42.3089 4.63598 42.0857 4.78386 41.8872 4.95423Z" fill="#F9BF1A"/>
<path fill-rule="evenodd" clip-rule="evenodd" d="M30.876 3.62323C30.7571 4.05654 30.7076 4.5002 30.7272 4.95422C30.5351 4.98927 30.3863 4.94002 30.2808 4.80633C30.4933 4.42596 30.6918 4.03155 30.876 3.62323Z" fill="#EED57F"/>
<path fill-rule="evenodd" clip-rule="evenodd" d="M38.0184 5.54577C37.0052 5.71613 35.9636 5.81477 34.8936 5.84154C35.901 5.60862 36.9426 5.51013 38.0184 5.54577Z" fill="#CEA364"/>
<path fill-rule="evenodd" clip-rule="evenodd" d="M26.2632 5.10211C26.6068 5.23344 26.8548 5.47982 27.0072 5.84155C27.2893 5.98441 27.5869 6.03365 27.9 5.98944C27.8476 6.43517 27.6493 6.80489 27.3048 7.09859C27.4219 7.40901 27.4715 7.72948 27.4536 8.05986C27.1075 7.96358 26.7604 7.86494 26.412 7.76408C26.0979 7.76201 25.825 7.86051 25.5936 8.05986C25.5192 8.01061 25.4448 7.96122 25.3704 7.91197C25.6551 7.26408 25.5063 6.74647 24.924 6.35915C24.9489 6.28521 24.9736 6.21127 24.9984 6.13732C25.3527 5.99905 25.7247 5.9498 26.1144 5.98944C26.0884 5.67577 26.1381 5.37999 26.2632 5.10211Z" fill="#F7C11D"/>
<path fill-rule="evenodd" clip-rule="evenodd" d="M34.0008 5.98944C33.9893 6.1743 33.8901 6.29749 33.7032 6.35916C33.1506 6.40648 32.6049 6.48043 32.0664 6.58099C32.1924 6.36419 32.3908 6.24085 32.6616 6.21127C33.1146 6.15759 33.561 6.08365 34.0008 5.98944Z" fill="#1D1E34"/>
<path fill-rule="evenodd" clip-rule="evenodd" d="M38.0184 5.39791C39.0157 5.37365 40.0077 5.4229 40.9944 5.5458C41.0774 5.73657 41.2262 5.85976 41.4408 5.91551C41.4069 5.97452 41.3572 5.99907 41.292 5.98946C40.5464 5.96491 39.8024 5.98961 39.06 6.0634C39.2441 6.09771 39.3929 6.17165 39.5064 6.28523C39.5305 6.585 39.5057 6.88077 39.432 7.17256C39.4235 6.81615 39.2499 6.61887 38.9112 6.58101C37.3368 6.60999 35.7991 6.85637 34.2984 7.32044C34.0785 7.35919 33.8801 7.30994 33.7032 7.17256C33.7343 7.08589 33.784 7.01195 33.852 6.95073C34.4676 6.8126 35.0628 6.61532 35.6376 6.35918C34.7641 6.22963 33.9706 6.40206 33.2568 6.87678C32.8897 6.91449 32.5921 7.06238 32.364 7.32044C30.7712 8.07437 30.8208 8.73987 32.5128 9.31692C33.1558 9.39072 33.8005 9.41542 34.4472 9.39087C35.0409 9.31707 35.6361 9.24313 36.2328 9.16903C36.3691 9.12792 36.4682 9.05398 36.5304 8.9472C36.881 8.78823 37.2281 8.78823 37.572 8.9472C37.2952 9.06921 37.0473 9.2171 36.828 9.39087C35.3143 9.74077 33.7767 9.88865 32.2152 9.83453C31.613 9.85597 31.1666 9.60944 30.876 9.09509C30.6413 8.54835 30.6909 8.03075 31.0248 7.54227C30.9364 7.47365 30.8372 7.44896 30.7272 7.46833C30.9331 7.27593 31.1563 7.27593 31.3968 7.46833C31.4886 7.32799 31.4639 7.2048 31.3224 7.09861C31.5594 6.95827 31.7578 6.78583 31.9176 6.58101C31.9672 6.58101 32.0169 6.58101 32.0664 6.58101C32.6049 6.48044 33.1506 6.4065 33.7032 6.35918C33.8901 6.29751 33.9893 6.17432 34.0008 5.98946C34.3334 6.03308 34.631 5.98369 34.8936 5.84157C35.9636 5.8148 37.0052 5.71616 38.0184 5.5458C38.0184 5.49655 38.0184 5.44715 38.0184 5.39791Z" fill="#1D1E34"/>
<path fill-rule="evenodd" clip-rule="evenodd" d="M41.292 5.98944C41.3912 6.08808 41.4903 6.18657 41.5896 6.28521C42.0311 6.63718 42.2294 7.10539 42.1848 7.69014C42.1254 8.31556 42.0262 8.9318 41.8872 9.53873C41.3625 10.7082 40.8666 11.8913 40.3992 13.088C40.1864 13.3669 39.9384 13.6135 39.6552 13.8275C38.1526 14.1771 36.6149 14.325 35.0424 14.2711C34.2753 14.1678 33.5313 13.9706 32.8104 13.6796C31.5118 12.5617 30.3461 11.3294 29.3136 9.98239C28.8837 9.01344 29.1565 8.32339 30.132 7.91197C30.3461 8.31215 30.5942 8.70657 30.876 9.09507C31.1666 9.60942 31.613 9.85595 32.2152 9.83451C33.6121 10.0158 35.0257 9.96657 36.456 9.68662C36.6607 9.65941 36.7847 9.56077 36.828 9.39084C37.275 9.35801 37.6718 9.21013 38.0184 8.94718C38.7651 8.8478 39.261 8.45339 39.5064 7.76408C39.6497 7.49301 39.7489 7.19723 39.804 6.87676C39.7913 6.60568 39.6921 6.40855 39.5064 6.28521C39.3929 6.17163 39.2441 6.09769 39.06 6.06338C39.8023 5.98958 40.5463 5.96489 41.292 5.98944Z" fill="#1D1E34"/>
<path fill-rule="evenodd" clip-rule="evenodd" d="M45.6072 5.10211C46.0451 5.6422 46.5908 6.06131 47.244 6.35915C46.6207 6.79113 46.4719 7.35813 46.7976 8.05986C46.439 7.92839 46.067 7.82989 45.6816 7.76408C45.3484 7.85149 45.026 7.95013 44.7144 8.05986C45.0257 7.36139 44.8769 6.79439 44.268 6.35915C44.5061 6.10065 44.8037 5.92806 45.1608 5.84155C45.3831 5.63377 45.5319 5.38739 45.6072 5.10211Z" fill="#F6C11F"/>
<path fill-rule="evenodd" clip-rule="evenodd" d="M34.2984 7.32042C34.0873 7.46106 33.8394 7.51031 33.5544 7.46831C33.6054 7.17505 33.5062 6.97777 33.2568 6.87676C33.9706 6.40204 34.7641 6.2296 35.6376 6.35915C35.0628 6.61529 34.4676 6.81258 33.852 6.9507C33.784 7.01193 33.7343 7.08587 33.7032 7.17253C33.8801 7.30992 34.0785 7.35917 34.2984 7.32042Z" fill="#1D1E34"/>
<path fill-rule="evenodd" clip-rule="evenodd" d="M33.2568 6.87677C33.0287 7.13483 32.7311 7.28272 32.364 7.32043C32.5921 7.06237 32.8897 6.91448 33.2568 6.87677Z" fill="#1D1E34"/>
<path fill-rule="evenodd" clip-rule="evenodd" d="M41.5896 6.28521C42.0193 6.2438 42.2425 6.44093 42.2592 6.87676C42.3584 7.56695 42.3584 8.25699 42.2592 8.94718C42.241 9.23364 42.1171 9.43077 41.8872 9.53873C42.0262 8.9318 42.1254 8.31555 42.1848 7.69014C42.2294 7.10539 42.0311 6.63718 41.5896 6.28521Z" fill="#6A440B"/>
<path fill-rule="evenodd" clip-rule="evenodd" d="M39.5064 6.28522C39.6921 6.40856 39.7913 6.60569 39.804 6.87677C39.7489 7.19724 39.6497 7.49301 39.5064 7.76409C39.0423 8.22831 38.5463 8.62272 38.0184 8.94719C37.6718 9.21013 37.275 9.35802 36.828 9.39085C37.0473 9.21708 37.2952 9.0692 37.572 8.94719C37.2281 8.78821 36.881 8.78821 36.5304 8.94719C37.1509 8.61592 37.7958 8.29545 38.4648 7.98592C39.0338 7.64622 39.1826 7.17787 38.9112 6.58099C39.2499 6.61885 39.4235 6.81613 39.432 7.17254C39.5057 6.88076 39.5305 6.58498 39.5064 6.28522Z" fill="#1D1E34"/>
<path fill-rule="evenodd" clip-rule="evenodd" d="M30.7272 7.4683C30.8372 7.44893 30.9364 7.47363 31.0248 7.54225C30.6909 8.03072 30.6413 8.54832 30.876 9.09506C30.5942 8.70656 30.3461 8.31215 30.132 7.91196C30.3303 7.76408 30.5288 7.61619 30.7272 7.4683Z" fill="#1D1E34"/>
<path fill-rule="evenodd" clip-rule="evenodd" d="M36.5304 8.94717C36.4682 9.05395 36.3691 9.12789 36.2328 9.16901C35.6361 9.2431 35.0409 9.31704 34.4472 9.39084C35.0994 9.13499 35.7938 8.9871 36.5304 8.94717Z" fill="#1D1E34"/>
<path fill-rule="evenodd" clip-rule="evenodd" d="M36.828 9.39084C36.7847 9.56076 36.6608 9.6594 36.456 9.68661C35.0257 9.96656 33.6121 10.0158 32.2152 9.8345C33.7767 9.88863 35.3143 9.74074 36.828 9.39084Z" fill="#6F4D14"/>
<path fill-rule="evenodd" clip-rule="evenodd" d="M40.9944 5.54578C41.3435 5.69707 41.6906 5.84495 42.036 5.98944C42.5699 6.69057 42.7435 7.47926 42.5568 8.35564C42.1875 10.0222 41.617 11.5997 40.8456 13.088C40.7961 13.088 40.7464 13.088 40.6968 13.088C40.5976 13.088 40.4985 13.088 40.3992 13.088C40.8666 11.8913 41.3625 10.7082 41.8872 9.53873C42.1171 9.43078 42.241 9.23364 42.2592 8.94718C42.3585 8.25699 42.3585 7.56695 42.2592 6.87676C42.2425 6.44094 42.0193 6.2438 41.5896 6.28521C41.4904 6.18657 41.3913 6.08808 41.292 5.98944C41.3572 5.99905 41.4069 5.9745 41.4408 5.91549C41.2262 5.85974 41.0774 5.73655 40.9944 5.54578Z" fill="#F6C11F"/>
<path fill-rule="evenodd" clip-rule="evenodd" d="M31.9176 6.58099C31.7578 6.78582 31.5595 6.95825 31.3224 7.0986C31.4639 7.20478 31.4886 7.32797 31.3968 7.46832C31.1564 7.27592 30.9332 7.27592 30.7272 7.46832C30.5289 7.6162 30.3304 7.76409 30.132 7.91198C29.1565 8.3234 28.8837 9.01344 29.3136 9.9824C30.3461 11.3294 31.5118 12.5617 32.8104 13.6796C32.6616 13.6796 32.5128 13.6796 32.364 13.6796C32.4039 13.9161 32.3542 14.1132 32.2152 14.2711C32.2542 14.0526 32.2046 13.8554 32.0664 13.6796C31.1819 12.7507 30.2891 11.8141 29.388 10.8697C29.0301 10.3444 28.7822 9.77743 28.644 9.16902C28.7538 8.61385 29.0017 8.1208 29.388 7.69015C30.1772 7.19073 31.0205 6.82101 31.9176 6.58099Z" fill="#1D1E34"/>
<path fill-rule="evenodd" clip-rule="evenodd" d="M40.6968 13.088C40.7464 13.088 40.7961 13.088 40.8456 13.088C40.8456 13.5809 40.8456 14.074 40.8456 14.5669C41.1254 14.5268 41.3237 14.6254 41.4408 14.8627C41.2002 14.7831 40.9521 14.7339 40.6968 14.7148C40.6968 14.1725 40.6968 13.6303 40.6968 13.088Z" fill="#1D1E34" fill-opacity="0.41"/>
<path fill-rule="evenodd" clip-rule="evenodd" d="M40.3992 13.088C40.3937 13.5615 40.1458 13.8079 39.6552 13.8274C39.9384 13.6135 40.1864 13.3669 40.3992 13.088Z" fill="#1D1E34"/>
<path fill-rule="evenodd" clip-rule="evenodd" d="M40.3992 13.088C40.4985 13.088 40.5976 13.088 40.6968 13.088C40.6968 13.6303 40.6968 14.1725 40.6968 14.7148C40.9521 14.7339 41.2002 14.7831 41.4408 14.8627C41.4408 15.2077 41.4408 15.5529 41.4408 15.8979C41.4408 16.5387 41.4408 17.1796 41.4408 17.8204C41.292 17.8204 41.1432 17.8204 40.9944 17.8204C40.7237 17.4562 40.4758 17.0617 40.2504 16.6373C40.3529 16.3633 40.5513 16.1908 40.8456 16.1197C40.4159 16.018 39.9695 15.944 39.5064 15.8979C39.2776 15.8909 39.1288 15.9896 39.06 16.1936C39.06 16.2429 39.06 16.2923 39.06 16.3415C38.4635 16.2734 37.9178 16.3965 37.4232 16.7113C36.2559 16.8328 35.1152 16.8083 34.0008 16.6373C33.5834 16.5162 33.137 16.4422 32.6616 16.4155C32.4293 16.3684 32.2557 16.2453 32.1408 16.0458C32.0792 16.1133 32.0048 16.1627 31.9176 16.1936C31.776 15.9652 31.7264 15.7186 31.7688 15.4542C31.6978 14.9489 31.8466 14.5545 32.2152 14.2711C32.3542 14.1132 32.4039 13.916 32.364 13.6796C32.5128 13.6796 32.6616 13.6796 32.8104 13.6796C33.5313 13.9706 34.2753 14.1677 35.0424 14.2711C36.256 14.4422 37.4961 14.4668 38.7624 14.3451C39.0239 14.0863 39.3215 13.9138 39.6552 13.8274C40.1458 13.8079 40.3937 13.5615 40.3992 13.088Z" fill="#F6C11F"/>
<path fill-rule="evenodd" clip-rule="evenodd" d="M39.6552 13.8275C39.3214 13.9138 39.0238 14.0863 38.7624 14.3451C37.4961 14.4668 36.256 14.4422 35.0424 14.2711C36.6149 14.3249 38.1526 14.1771 39.6552 13.8275Z" fill="#1D1E34"/>
<path fill-rule="evenodd" clip-rule="evenodd" d="M41.4408 14.8627C41.6033 15.6091 41.8016 16.3485 42.036 17.081C41.8878 17.0937 41.7638 17.0443 41.664 16.9331C41.6363 16.5581 41.5619 16.213 41.4408 15.8979C41.4408 15.5529 41.4408 15.2077 41.4408 14.8627Z" fill="#1D1E34" fill-opacity="0.4"/>
<path fill-rule="evenodd" clip-rule="evenodd" d="M25.3704 25.8063C25.3325 26.1712 25.1837 26.4669 24.924 26.6937C24.962 26.3288 25.1108 26.033 25.3704 25.8063Z" fill="#E5C599"/>
<path fill-rule="evenodd" clip-rule="evenodd" d="M24.18 28.7641C24.2159 29.1187 24.1166 29.4145 23.8824 29.6514C23.8466 29.2968 23.9458 29.001 24.18 28.7641Z" fill="#D9B67D"/>
<path fill-rule="evenodd" clip-rule="evenodd" d="M23.7336 30.5387C23.5352 31.6726 23.5352 32.8063 23.7336 33.9401C23.5022 33.3925 23.403 32.801 23.436 32.1655C23.4608 31.7218 23.4855 31.2782 23.5104 30.8345C23.5518 30.699 23.6262 30.6005 23.7336 30.5387Z" fill="#DBBC8D"/>
<path fill-rule="evenodd" clip-rule="evenodd" d="M31.7688 15.4542C31.7264 15.7186 31.7759 15.9652 31.9176 16.1937C32.0048 16.1628 32.0792 16.1134 32.1408 16.0458C32.2557 16.2453 32.4293 16.3685 32.6616 16.4155C33.137 16.4423 33.5834 16.5162 34.0008 16.6373C33.5023 16.6129 33.0064 16.6376 32.5128 16.7113C32.3817 16.816 32.2826 16.9393 32.2152 17.081C31.0461 18.3654 29.9301 19.6964 28.8672 21.0739C28.6525 21.8782 28.2061 22.5189 27.528 22.9965C26.6815 24.482 25.9126 26.0103 25.2216 27.581C24.9619 27.8077 24.8131 28.1035 24.7752 28.4683C24.7114 29.086 24.5626 29.6776 24.3288 30.243C24.2214 30.3048 24.147 30.4033 24.1056 30.5387C23.983 31.8465 24.0078 33.1282 24.18 34.3838C24.5077 35.2813 24.9541 36.1194 25.5192 36.8979C26.2964 37.6954 27.1396 38.4102 28.0488 39.0423C28.9041 39.3436 29.7474 39.6887 30.5784 40.0775C32.5795 40.6115 34.613 40.9812 36.6792 41.1866C38.3397 41.358 40.026 41.3827 41.7384 41.2606C41.9702 41.2295 42.1686 41.1556 42.3336 41.0387C43.3343 40.9218 44.2271 40.5766 45.012 40.0035C47.5345 38.6296 49.1713 36.5592 49.9224 33.7923C50.04 33.6282 50.1144 33.4311 50.1456 33.2007C50.2449 31.7711 50.2449 30.3416 50.1456 28.912C50.0886 28.8297 50.0142 28.7805 49.9224 28.7641C49.9224 28.5669 49.9224 28.3697 49.9224 28.1725C49.7967 27.0931 49.4494 26.1073 48.8808 25.2148C47.9096 23.4317 46.7192 21.7803 45.3096 20.2606C44.6099 19.6307 43.8659 19.0637 43.0776 18.5599C42.8191 18.2567 42.5215 17.9856 42.1848 17.7465C42.0454 17.6441 41.9463 17.6688 41.8872 17.8204C41.7405 18.4815 41.6909 19.1717 41.7384 19.8908C41.5133 20.189 41.3892 20.534 41.3664 20.9261C41.216 21.0498 41.0423 21.0991 40.8456 21.0739C40.6472 20.9753 40.4984 20.8274 40.3992 20.6303C40.6438 20.5986 40.867 20.648 41.0688 20.7782C41.3846 20.0661 41.5334 19.3267 41.5152 18.5599C41.4656 18.4612 41.416 18.3627 41.3664 18.2641C41.3168 18.5106 41.2672 18.757 41.2176 19.0035C41.1108 19.1442 40.9868 19.1687 40.8456 19.0775C40.7526 18.6634 40.6534 18.2443 40.548 17.8204C40.3928 18.1678 40.1945 18.4636 39.9528 18.7077C40.0217 18.2667 40.0712 17.8231 40.1016 17.3768C40.3602 16.4263 40.0131 16.0319 39.06 16.1937C39.1287 15.9896 39.2775 15.8909 39.5064 15.8979C39.9695 15.944 40.4159 16.018 40.8456 16.1197C40.5513 16.1909 40.3529 16.3633 40.2504 16.6373C40.4758 17.0618 40.7237 17.4562 40.9944 17.8204C41.1432 17.8204 41.292 17.8204 41.4408 17.8204C41.4408 17.1796 41.4408 16.5387 41.4408 15.8979C41.5619 16.213 41.6363 16.5581 41.664 16.9331C41.7638 17.0443 41.8878 17.0937 42.036 17.081C45.7823 19.4007 48.4856 22.605 50.1456 26.6937C50.344 27.6796 50.5424 28.6654 50.7408 29.6514C51.1818 34.7963 49.1235 38.5427 44.5656 40.8908C43.9086 40.9442 43.3134 41.1414 42.78 41.4824C42.5816 41.4824 42.3832 41.4824 42.1848 41.4824C41.6006 41.638 41.0054 41.7365 40.3992 41.7782C38.8099 41.7826 37.2226 41.7332 35.6376 41.6303C33.9507 41.4093 32.2643 41.089 30.5784 40.669C29.725 40.1958 28.8322 39.8015 27.9 39.4859C27.3215 39.076 26.7263 38.7063 26.1144 38.3768C25.9274 37.9439 25.6298 37.5987 25.2216 37.3415C25.0791 37.2746 24.955 37.1761 24.8496 37.0458C24.6687 36.5205 24.4206 36.0276 24.1056 35.5669C23.8223 35.0607 23.6983 34.5184 23.7336 33.9401C23.5353 32.8063 23.5353 31.6726 23.7336 30.5387C23.7832 30.243 23.8329 29.9472 23.8824 29.6514C24.1166 29.4145 24.2159 29.1187 24.18 28.7641C24.3441 28.0436 24.5922 27.3535 24.924 26.6937C25.1837 26.4669 25.3325 26.1712 25.3704 25.8063C27.0755 22.5048 29.2331 19.4976 31.8432 16.7852C31.9151 16.645 31.9398 16.4971 31.9176 16.3415C31.7688 16.3415 31.62 16.3415 31.4712 16.3415C31.4005 15.9597 31.4998 15.6639 31.7688 15.4542Z" fill="#F6C11F"/>
<path fill-rule="evenodd" clip-rule="evenodd" d="M24.3288 30.243C24.1968 31.6185 24.1471 32.9987 24.18 34.3838C24.0079 33.1282 23.983 31.8465 24.1056 30.5387C24.147 30.4033 24.2214 30.3048 24.3288 30.243Z" fill="#1D1E34"/>
<path fill-rule="evenodd" clip-rule="evenodd" d="M49.9224 28.7641C50.0142 28.7805 50.0886 28.8298 50.1456 28.912C50.2448 30.3416 50.2448 31.7711 50.1456 33.2007C50.1143 33.4311 50.0399 33.6283 49.9224 33.7923C50.1169 32.1155 50.1169 30.4395 49.9224 28.7641Z" fill="#1D1E34"/>
<path fill-rule="evenodd" clip-rule="evenodd" d="M25.2216 27.581C25.1837 27.9458 25.0349 28.2416 24.7752 28.4683C24.8132 28.1035 24.962 27.8077 25.2216 27.581Z" fill="#1D1E34"/>
<path fill-rule="evenodd" clip-rule="evenodd" d="M48.8808 25.2148C49.4494 26.1073 49.7967 27.0931 49.9224 28.1725C49.576 27.1985 49.2287 26.2126 48.8808 25.2148Z" fill="#744C13"/>
<path fill-rule="evenodd" clip-rule="evenodd" d="M41.8872 17.8204C42.1282 18.5504 42.0786 19.2406 41.7384 19.8909C41.6909 19.1717 41.7405 18.4815 41.8872 17.8204Z" fill="#1D1E34" fill-opacity="0.129412"/>
<path fill-rule="evenodd" clip-rule="evenodd" d="M40.3992 20.6303C39.8522 20.0799 39.7034 19.4389 39.9528 18.7078C40.1945 18.4636 40.3928 18.1678 40.548 17.8204C40.6534 18.2443 40.7526 18.6634 40.8456 19.0775C40.9868 19.1687 41.1108 19.1442 41.2176 19.0035C41.2672 18.757 41.3169 18.5106 41.3664 18.2641C41.416 18.3627 41.4657 18.4612 41.5152 18.5599C41.5334 19.3267 41.3846 20.0661 41.0688 20.7782C40.867 20.648 40.6438 20.5986 40.3992 20.6303Z" fill="#F6C11F"/>
<path fill-rule="evenodd" clip-rule="evenodd" d="M39.804 16.6373C39.9032 16.8839 40.0023 17.1302 40.1016 17.3768C40.0712 17.8231 40.0217 18.2668 39.9528 18.7078C39.7399 18.7641 39.6159 18.912 39.5808 19.1514C39.3762 19.9086 39.6489 20.4015 40.3992 20.6303C40.4984 20.8274 40.6472 20.9753 40.8456 21.0739C41.0377 21.2178 41.0377 21.3657 40.8456 21.5176C41.4856 21.9591 42.18 22.2548 42.9288 22.4049C43.2124 21.1374 43.1132 19.9049 42.6312 18.7078C42.7642 18.7052 42.913 18.6558 43.0776 18.5599C43.8659 19.0637 44.6099 19.6307 45.3096 20.2606C46.7192 21.7803 47.9096 23.4317 48.8808 25.2148C49.2287 26.2126 49.576 27.1986 49.9224 28.1725C49.9224 28.3697 49.9224 28.567 49.9224 28.7641C50.1169 30.4395 50.1169 32.1155 49.9224 33.7923C49.1712 36.5592 47.5344 38.6297 45.012 40.0035C44.1129 40.3503 43.2201 40.6953 42.3336 41.0387C40.4514 41.1603 38.5667 41.2095 36.6792 41.1866C34.613 40.9812 32.5795 40.6115 30.5784 40.0775C29.7473 39.6887 28.9041 39.3437 28.0488 39.0423C27.1396 38.4102 26.2964 37.6954 25.5192 36.8979C24.954 36.1194 24.5076 35.2813 24.18 34.3838C24.1471 32.9987 24.1968 31.6185 24.3288 30.243C24.5626 29.6776 24.7114 29.086 24.7752 28.4683C25.0348 28.2416 25.1836 27.9458 25.2216 27.581C25.9126 26.0103 26.6815 24.482 27.528 22.9965C28.2061 22.519 28.6525 21.8782 28.8672 21.0739C29.9301 19.6964 31.0461 18.3654 32.2152 17.081C32.3144 17.081 32.4135 17.081 32.5128 17.081C34.9943 17.4825 37.4247 17.3346 39.804 16.6373Z" fill="#1D1E34"/>
<path fill-rule="evenodd" clip-rule="evenodd" d="M39.9528 18.7077C39.7034 19.4389 39.8522 20.0798 40.3992 20.6303C39.6489 20.4015 39.3762 19.9086 39.5808 19.1514C39.6159 18.912 39.7399 18.7641 39.9528 18.7077Z" fill="#1D1E34"/>
<path fill-rule="evenodd" clip-rule="evenodd" d="M39.06 16.3415C39.06 16.2923 39.06 16.2429 39.06 16.1937C40.0131 16.0319 40.3602 16.4263 40.1016 17.3768C40.0023 17.1302 39.9032 16.8838 39.804 16.6373C39.804 16.5387 39.7544 16.4894 39.6552 16.4894C39.4963 16.3513 39.2979 16.3019 39.06 16.3415Z" fill="#744C13"/>
<path fill-rule="evenodd" clip-rule="evenodd" d="M25.2216 37.3416C25.6297 37.5987 25.9273 37.9439 26.1144 38.3768C25.7062 38.1196 25.4086 37.7744 25.2216 37.3416Z" fill="#EDC8A1"/>
<path fill-rule="evenodd" clip-rule="evenodd" d="M45.012 40.0035C44.2271 40.5766 43.3343 40.9218 42.3336 41.0388C43.2201 40.6954 44.1129 40.3503 45.012 40.0035Z" fill="#734A12"/>
<path fill-rule="evenodd" clip-rule="evenodd" d="M44.5656 40.8908C44.0101 41.1735 43.4149 41.3706 42.78 41.4824C43.3134 41.1414 43.9086 40.9442 44.5656 40.8908Z" fill="#EBCFA8"/>
<path fill-rule="evenodd" clip-rule="evenodd" d="M42.3336 41.0387C42.1686 41.1556 41.9702 41.2295 41.7384 41.2606C40.026 41.3827 38.3397 41.358 36.6792 41.1866C38.5667 41.2095 40.4514 41.1603 42.3336 41.0387Z" fill="#68450F"/>
<path fill-rule="evenodd" clip-rule="evenodd" d="M35.6376 41.6303C37.2226 41.7332 38.8099 41.7826 40.3992 41.7782C40.3992 41.8274 40.3992 41.8768 40.3992 41.9261C38.7788 41.9908 37.1915 41.8923 35.6376 41.6303Z" fill="#CAA86F"/>
<path fill-rule="evenodd" clip-rule="evenodd" d="M42.1848 41.4824C42.0588 41.6992 41.8604 41.8225 41.5896 41.8521C41.1959 41.9256 40.799 41.9503 40.3992 41.9261C40.3992 41.8768 40.3992 41.8274 40.3992 41.7782C41.0054 41.7365 41.6006 41.638 42.1848 41.4824Z" fill="#EEDBB9"/>
<path d="M60.8 27.82V15.38C60.8 15.1 61.4733 14.96 62.82 14.96C64.18 14.96 64.86 15.1 64.86 15.38V25.18H67.94C68.18 25.18 68.3467 25.4933 68.44 26.12C68.48 26.4267 68.5 26.74 68.5 27.06C68.5 27.38 68.48 27.7067 68.44 28.04C68.3333 28.68 68.16 29 67.92 29H61.76C61.4667 29 61.2333 28.88 61.06 28.64C60.8867 28.4 60.8 28.1267 60.8 27.82ZM70.4514 27.82C69.6247 26.9 69.2114 25.6267 69.2114 24C69.2114 22.3733 69.6247 21.1 70.4514 20.18C71.2914 19.26 72.4181 18.8 73.8314 18.8C75.2447 18.8 76.3647 19.26 77.1914 20.18C78.0181 21.1 78.4314 22.3733 78.4314 24C78.4314 25.6267 78.0181 26.9 77.1914 27.82C76.3647 28.74 75.2447 29.2 73.8314 29.2C72.4181 29.2 71.2914 28.74 70.4514 27.82ZM73.8314 22.14C73.0847 22.14 72.7114 22.7533 72.7114 23.98C72.7114 25.2067 73.0847 25.82 73.8314 25.82C74.5914 25.82 74.9714 25.2067 74.9714 23.98C74.9714 22.7533 74.5914 22.14 73.8314 22.14ZM84.4453 28.88C84.4453 29.04 83.8853 29.12 82.7653 29.12C81.432 29.0667 80.7653 28.98 80.7653 28.86V21.78H79.7453C79.4786 21.78 79.3453 21.32 79.3453 20.4C79.3453 20.16 79.3653 19.8667 79.4053 19.52C79.4586 19.1733 79.5586 19 79.7053 19H80.7653V17.24C80.7653 16.9733 81.3253 16.84 82.4453 16.84C83.5786 16.84 84.1453 16.9467 84.1453 17.16V18.44L84.1653 19H85.8653C86.092 19 86.2053 19.4667 86.2053 20.4C86.2053 21.3333 86.092 21.8 85.8653 21.8H84.4453V28.88ZM91.8086 28.88C91.8086 29.04 91.2486 29.12 90.1286 29.12C88.7953 29.0667 88.1286 28.98 88.1286 28.86V21.78H87.1086C86.8419 21.78 86.7086 21.32 86.7086 20.4C86.7086 20.16 86.7286 19.8667 86.7686 19.52C86.8219 19.1733 86.9219 19 87.0686 19H88.1286V17.24C88.1286 16.9733 88.6886 16.84 89.8086 16.84C90.9419 16.84 91.5086 16.9467 91.5086 17.16V18.44L91.5286 19H93.2286C93.4553 19 93.5686 19.4667 93.5686 20.4C93.5686 21.3333 93.4553 21.8 93.2286 21.8H91.8086V28.88ZM95.4319 27.82C94.6052 26.9 94.1919 25.6267 94.1919 24C94.1919 22.3733 94.6052 21.1 95.4319 20.18C96.2719 19.26 97.3985 18.8 98.8119 18.8C100.225 18.8 101.345 19.26 102.172 20.18C102.999 21.1 103.412 22.3733 103.412 24C103.412 25.6267 102.999 26.9 102.172 27.82C101.345 28.74 100.225 29.2 98.8119 29.2C97.3985 29.2 96.2719 28.74 95.4319 27.82ZM98.8119 22.14C98.0652 22.14 97.6919 22.7533 97.6919 23.98C97.6919 25.2067 98.0652 25.82 98.8119 25.82C99.5719 25.82 99.9519 25.2067 99.9519 23.98C99.9519 22.7533 99.5719 22.14 98.8119 22.14ZM118.515 18.62C118.515 20.0067 117.915 21.06 116.715 21.78C117.369 22.02 117.915 22.4333 118.355 23.02C118.795 23.6067 119.015 24.44 119.015 25.52C119.015 26.5867 118.615 27.4333 117.815 28.06C117.029 28.6867 115.895 29 114.415 29H109.695C109.469 29 109.282 28.9267 109.135 28.78C108.989 28.62 108.915 28.4133 108.915 28.16V15.36C108.915 15.2133 108.935 15.12 108.975 15.08C109.029 15.0267 109.129 15 109.275 15H113.835C116.955 15 118.515 16.2067 118.515 18.62ZM112.755 18.24V20.86H112.855C114.135 20.86 114.775 20.4333 114.775 19.58C114.775 19.1133 114.649 18.7733 114.395 18.56C114.155 18.3467 113.749 18.24 113.175 18.24H112.755ZM112.755 23.22V25.82H113.115C113.689 25.82 114.109 25.7133 114.375 25.5C114.642 25.2867 114.775 24.9467 114.775 24.48C114.775 24.0133 114.649 23.6867 114.395 23.5C114.155 23.3133 113.749 23.22 113.175 23.22H112.755ZM121.33 27.82C120.504 26.9 120.09 25.6267 120.09 24C120.09 22.3733 120.504 21.1 121.33 20.18C122.17 19.26 123.297 18.8 124.71 18.8C126.124 18.8 127.244 19.26 128.07 20.18C128.897 21.1 129.31 22.3733 129.31 24C129.31 25.6267 128.897 26.9 128.07 27.82C127.244 28.74 126.124 29.2 124.71 29.2C123.297 29.2 122.17 28.74 121.33 27.82ZM124.71 22.14C123.964 22.14 123.59 22.7533 123.59 23.98C123.59 25.2067 123.964 25.82 124.71 25.82C125.47 25.82 125.85 25.2067 125.85 23.98C125.85 22.7533 125.47 22.14 124.71 22.14ZM131.584 27.82C130.758 26.9 130.344 25.6267 130.344 24C130.344 22.3733 130.758 21.1 131.584 20.18C132.424 19.26 133.551 18.8 134.964 18.8C136.378 18.8 137.498 19.26 138.324 20.18C139.151 21.1 139.564 22.3733 139.564 24C139.564 25.6267 139.151 26.9 138.324 27.82C137.498 28.74 136.378 29.2 134.964 29.2C133.551 29.2 132.424 28.74 131.584 27.82ZM134.964 22.14C134.218 22.14 133.844 22.7533 133.844 23.98C133.844 25.2067 134.218 25.82 134.964 25.82C135.724 25.82 136.104 25.2067 136.104 23.98C136.104 22.7533 135.724 22.14 134.964 22.14ZM141.398 25.4C142.478 26.0533 143.331 26.38 143.958 26.38C144.358 26.38 144.558 26.24 144.558 25.96C144.558 25.76 144.211 25.5 143.518 25.18C141.851 24.5 141.018 23.3867 141.018 21.84C141.018 20.8533 141.378 20.1 142.098 19.58C142.818 19.06 143.678 18.8 144.678 18.8C145.691 18.8 146.545 18.9067 147.238 19.12C147.945 19.3333 148.298 19.6133 148.298 19.96C148.298 20.2533 148.151 20.64 147.858 21.12C147.578 21.6 147.385 21.86 147.278 21.9C146.705 21.58 146.085 21.42 145.418 21.42C145.058 21.42 144.878 21.5467 144.878 21.8C144.878 21.96 144.945 22.1 145.078 22.22C145.225 22.3267 145.485 22.4667 145.858 22.64C146.231 22.8 146.538 22.9467 146.778 23.08C147.031 23.2133 147.311 23.4 147.618 23.64C148.258 24.1467 148.578 24.8067 148.578 25.62C148.578 26.6867 148.225 27.5533 147.518 28.22C146.811 28.8733 145.745 29.2 144.318 29.2C143.371 29.2 142.511 29.04 141.738 28.72C140.965 28.4 140.578 27.96 140.578 27.4C140.578 27.0267 140.665 26.6333 140.838 26.22C141.025 25.8067 141.211 25.5333 141.398 25.4ZM154.582 28.88C154.582 29.04 154.022 29.12 152.902 29.12C151.569 29.0667 150.902 28.98 150.902 28.86V21.78H149.882C149.615 21.78 149.482 21.32 149.482 20.4C149.482 20.16 149.502 19.8667 149.542 19.52C149.595 19.1733 149.695 19 149.842 19H150.902V17.24C150.902 16.9733 151.462 16.84 152.582 16.84C153.715 16.84 154.282 16.9467 154.282 17.16V18.44L154.302 19H156.002C156.229 19 156.342 19.4667 156.342 20.4C156.342 21.3333 156.229 21.8 156.002 21.8H154.582V28.88Z" fill="#1D1E34"/>
</svg>
