<svg width="23" height="23" viewBox="0 0 23 23" fill="none" xmlns="http://www.w3.org/2000/svg">
<circle cx="11.5" cy="11.5" r="11.5" fill="white"/>
<path d="M16.0046 8.37231L16.0046 7.3242L17.379 7.32384L13.1252 4L11.0083 5.65573L8.89057 4.00093L4.63823 7.32669L6.01267 7.32633L6.0127 8.36609C5.228 8.639 4.54495 8.97359 4 9.3563C5.69783 8.51099 8.20311 7.97547 11 7.97547C13.7969 7.97547 16.3022 8.51099 18 9.3563C17.4591 8.97644 16.782 8.6441 16.0046 8.37231ZM12.0905 6.96211L9.9265 6.9625L11.0083 6.11656L12.0905 6.96211ZM6.37576 8.2471L6.37564 6.96336H5.6917L8.89057 4.46171L10.7136 5.88615L8.87267 7.3258H8.87284L11.0085 7.32528L13.1443 7.32475L12.0311 6.455L11.3031 5.88612L13.1252 4.46085L16.3252 6.96125H15.6416L15.6417 8.2526C14.3098 7.83605 12.7159 7.59209 11 7.59209C9.29169 7.59209 7.70411 7.83389 6.37576 8.2471Z" fill="#1B254B"/>
<path d="M5.83763 9.16462C6.92731 8.73425 8.76665 8.45148 10.8525 8.45148C12.9383 8.45148 14.7776 8.73423 15.8673 9.16462C14.511 8.92745 12.7623 8.78439 10.8525 8.78439C8.94266 8.78439 7.19396 8.92745 5.83763 9.16462Z" fill="#1B254B"/>
<path d="M9.93262 15.2617C9.93262 15.5319 9.88216 15.7646 9.78125 15.96C9.68359 16.1553 9.55176 16.3213 9.38574 16.458C9.21973 16.5947 9.02767 16.707 8.80957 16.7949C8.59473 16.8796 8.37012 16.9463 8.13574 16.9951C7.90137 17.0439 7.66536 17.0765 7.42773 17.0928C7.19336 17.109 6.97363 17.1172 6.76855 17.1172C6.56673 17.1172 6.35677 17.109 6.13867 17.0928C5.92383 17.0798 5.70898 17.0553 5.49414 17.0195C5.2793 16.9837 5.06771 16.9365 4.85938 16.8779C4.65104 16.8161 4.4541 16.7396 4.26855 16.6484L4.25879 10.3594C4.44108 10.2845 4.63477 10.2178 4.83984 10.1592C5.04492 10.0973 5.25326 10.0469 5.46484 10.0078C5.67969 9.96549 5.8929 9.93457 6.10449 9.91504C6.31608 9.89225 6.52116 9.88086 6.71973 9.88086C6.95085 9.88086 7.18359 9.89551 7.41797 9.9248C7.6556 9.9541 7.88346 10.0029 8.10156 10.0713C8.31966 10.1396 8.52311 10.2292 8.71191 10.3398C8.90072 10.4473 9.0651 10.5807 9.20508 10.7402C9.34831 10.8997 9.45898 11.0853 9.53711 11.2969C9.61849 11.5085 9.65918 11.7526 9.65918 12.0293C9.65918 12.2116 9.63314 12.3825 9.58105 12.542C9.52897 12.7015 9.4541 12.8447 9.35645 12.9717C9.25879 13.0986 9.13997 13.2077 9 13.2988C8.86003 13.3867 8.70215 13.4518 8.52637 13.4941C8.73796 13.5495 8.93001 13.6309 9.10254 13.7383C9.27832 13.8457 9.42643 13.9759 9.54688 14.1289C9.67057 14.2819 9.76497 14.4544 9.83008 14.6465C9.89844 14.8385 9.93262 15.0436 9.93262 15.2617ZM7.45215 12.4785C7.45215 12.3841 7.43262 12.3044 7.39355 12.2393C7.35449 12.1709 7.30566 12.1156 7.24707 12.0732C7.19173 12.0309 7.12988 12 7.06152 11.9805C6.99642 11.9609 6.93783 11.9512 6.88574 11.9512C6.82064 11.9512 6.75716 11.9609 6.69531 11.9805C6.63346 12 6.57324 12.0228 6.51465 12.0488L6.48535 13.1328C6.56022 13.1328 6.65299 13.1263 6.76367 13.1133C6.87435 13.1003 6.98014 13.0726 7.08105 13.0303C7.18522 12.9847 7.27311 12.9196 7.34473 12.835C7.41634 12.7471 7.45215 12.6283 7.45215 12.4785ZM6.75879 14.0703C6.66439 14.0703 6.57324 14.0801 6.48535 14.0996L6.46582 15.2129C6.51465 15.2227 6.56185 15.2324 6.60742 15.2422C6.65625 15.2487 6.70345 15.252 6.74902 15.252C6.81738 15.252 6.89225 15.2454 6.97363 15.2324C7.05501 15.2161 7.13151 15.1868 7.20312 15.1445C7.27474 15.099 7.33333 15.0387 7.37891 14.9639C7.42773 14.889 7.45215 14.7897 7.45215 14.666C7.45215 14.5423 7.42773 14.4414 7.37891 14.3633C7.33333 14.2852 7.27637 14.2249 7.20801 14.1826C7.13965 14.137 7.06478 14.1077 6.9834 14.0947C6.90202 14.0785 6.82715 14.0703 6.75879 14.0703ZM17.9453 16.8047L15.5039 16.9219L15.4844 14.8613H14.3613L14.293 17H12.1055L12.291 10.1348L14.6152 10.2422L14.4688 13.748H15.5527L15.5625 10.0762L17.7891 10.1348L17.9453 16.8047Z" fill="#1B254B"/>
</svg>
